<svg width="20" height="20" viewBox="0 0 20 20" fill="none" xmlns="http://www.w3.org/2000/svg">
<path d="M12.5 14.1667H16.6667L15.4959 12.9958C15.3386 12.8386 15.2139 12.6519 15.1289 12.4464C15.0438 12.2409 15 12.0207 15 11.7983V9.16667C15.0002 8.13245 14.6797 7.12362 14.0827 6.27907C13.4858 5.43453 12.6417 4.7958 11.6667 4.45083V4.16667C11.6667 3.72464 11.4911 3.30072 11.1786 2.98816C10.866 2.67559 10.4421 2.5 10 2.5C9.55801 2.5 9.13409 2.67559 8.82153 2.98816C8.50897 3.30072 8.33337 3.72464 8.33337 4.16667V4.45083C6.39171 5.1375 5.00004 6.99 5.00004 9.16667V11.7992C5.00004 12.2475 4.82171 12.6783 4.50421 12.9958L3.33337 14.1667H7.50004M12.5 14.1667V15C12.5 15.663 12.2366 16.2989 11.7678 16.7678C11.299 17.2366 10.6631 17.5 10 17.5C9.337 17.5 8.70111 17.2366 8.23227 16.7678C7.76343 16.2989 7.50004 15.663 7.50004 15V14.1667M12.5 14.1667H7.50004" stroke="black" stroke-width="2" stroke-linecap="round" stroke-linejoin="round"/>
</svg>
