<svg width="20" height="20" viewBox="0 0 20 20" fill="none" xmlns="http://www.w3.org/2000/svg">
<path d="M14.1665 16.6667H18.3332V15C18.3331 14.4805 18.1712 13.9739 17.87 13.5506C17.5687 13.1273 17.143 12.8084 16.6521 12.6382C16.1612 12.468 15.6295 12.4549 15.1309 12.6009C14.6323 12.7468 14.1915 13.0445 13.8698 13.4525M14.1665 16.6667H5.83317M14.1665 16.6667V15C14.1665 14.4534 14.0615 13.9309 13.8698 13.4525M13.8698 13.4525C13.5604 12.6792 13.0263 12.0163 12.3365 11.5493C11.6467 11.0824 10.8328 10.8328 9.99984 10.8328C9.16685 10.8328 8.35297 11.0824 7.66317 11.5493C6.97337 12.0163 6.4393 12.6792 6.12984 13.4525M5.83317 16.6667H1.6665V15C1.66654 14.4805 1.82845 13.9739 2.12972 13.5506C2.43099 13.1273 2.85666 12.8084 3.34755 12.6382C3.83843 12.468 4.37015 12.4549 4.86879 12.6009C5.36742 12.7468 5.80819 13.0445 6.12984 13.4525M5.83317 16.6667V15C5.83317 14.4534 5.93817 13.9309 6.12984 13.4525M12.4998 5.83337C12.4998 6.49642 12.2364 7.1323 11.7676 7.60114C11.2988 8.06998 10.6629 8.33337 9.99984 8.33337C9.3368 8.33337 8.70091 8.06998 8.23207 7.60114C7.76323 7.1323 7.49984 6.49642 7.49984 5.83337C7.49984 5.17033 7.76323 4.53445 8.23207 4.06561C8.70091 3.59677 9.3368 3.33337 9.99984 3.33337C10.6629 3.33337 11.2988 3.59677 11.7676 4.06561C12.2364 4.53445 12.4998 5.17033 12.4998 5.83337ZM17.4998 8.33337C17.4998 8.7754 17.3242 9.19932 17.0117 9.51188C16.6991 9.82445 16.2752 10 15.8332 10C15.3911 10 14.9672 9.82445 14.6547 9.51188C14.3421 9.19932 14.1665 8.7754 14.1665 8.33337C14.1665 7.89135 14.3421 7.46742 14.6547 7.15486C14.9672 6.8423 15.3911 6.66671 15.8332 6.66671C16.2752 6.66671 16.6991 6.8423 17.0117 7.15486C17.3242 7.46742 17.4998 7.89135 17.4998 8.33337ZM5.83317 8.33337C5.83317 8.7754 5.65758 9.19932 5.34502 9.51188C5.03245 9.82445 4.60853 10 4.1665 10C3.72448 10 3.30055 9.82445 2.98799 9.51188C2.67543 9.19932 2.49984 8.7754 2.49984 8.33337C2.49984 7.89135 2.67543 7.46742 2.98799 7.15486C3.30055 6.8423 3.72448 6.66671 4.1665 6.66671C4.60853 6.66671 5.03245 6.8423 5.34502 7.15486C5.65758 7.46742 5.83317 7.89135 5.83317 8.33337Z" stroke="black" stroke-width="2" stroke-linecap="round" stroke-linejoin="round"/>
</svg>
