<svg width="20" height="20" viewBox="0 0 20 20" fill="none" xmlns="http://www.w3.org/2000/svg">
<path d="M14.1667 16.6667H18.3334V15C18.3334 14.4805 18.1715 13.9739 17.8702 13.5506C17.5689 13.1273 17.1433 12.8084 16.6524 12.6382C16.1615 12.468 15.6298 12.4549 15.1311 12.6009C14.6325 12.7468 14.1917 13.0445 13.8701 13.4525M14.1667 16.6667H5.83341M14.1667 16.6667V15C14.1667 14.4534 14.0617 13.9309 13.8701 13.4525M13.8701 13.4525C13.5606 12.6792 13.0265 12.0163 12.3367 11.5493C11.6469 11.0824 10.8331 10.8328 10.0001 10.8328C9.1671 10.8328 8.35322 11.0824 7.66342 11.5493C6.97362 12.0163 6.43954 12.6792 6.13008 13.4525M5.83341 16.6667H1.66675V15C1.66679 14.4805 1.82869 13.9739 2.12997 13.5506C2.43124 13.1273 2.8569 12.8084 3.34779 12.6382C3.83868 12.468 4.3704 12.4549 4.86903 12.6009C5.36766 12.7468 5.80844 13.0445 6.13008 13.4525M5.83341 16.6667V15C5.83341 14.4534 5.93841 13.9309 6.13008 13.4525M12.5001 5.83337C12.5001 6.49642 12.2367 7.1323 11.7678 7.60114C11.299 8.06998 10.6631 8.33337 10.0001 8.33337C9.33704 8.33337 8.70115 8.06998 8.23231 7.60114C7.76347 7.1323 7.50008 6.49642 7.50008 5.83337C7.50008 5.17033 7.76347 4.53445 8.23231 4.06561C8.70115 3.59677 9.33704 3.33337 10.0001 3.33337C10.6631 3.33337 11.299 3.59677 11.7678 4.06561C12.2367 4.53445 12.5001 5.17033 12.5001 5.83337ZM17.5001 8.33337C17.5001 8.7754 17.3245 9.19932 17.0119 9.51188C16.6994 9.82445 16.2754 10 15.8334 10C15.3914 10 14.9675 9.82445 14.6549 9.51188C14.3423 9.19932 14.1667 8.7754 14.1667 8.33337C14.1667 7.89135 14.3423 7.46742 14.6549 7.15486C14.9675 6.8423 15.3914 6.66671 15.8334 6.66671C16.2754 6.66671 16.6994 6.8423 17.0119 7.15486C17.3245 7.46742 17.5001 7.89135 17.5001 8.33337ZM5.83341 8.33337C5.83341 8.7754 5.65782 9.19932 5.34526 9.51188C5.0327 9.82445 4.60878 10 4.16675 10C3.72472 10 3.3008 9.82445 2.98824 9.51188C2.67568 9.19932 2.50008 8.7754 2.50008 8.33337C2.50008 7.89135 2.67568 7.46742 2.98824 7.15486C3.3008 6.8423 3.72472 6.66671 4.16675 6.66671C4.60878 6.66671 5.0327 6.8423 5.34526 7.15486C5.65782 7.46742 5.83341 7.89135 5.83341 8.33337Z" stroke="black" stroke-width="2" stroke-linecap="round" stroke-linejoin="round"/>
</svg>
