<svg width="20" height="20" viewBox="0 0 20 20" fill="none" xmlns="http://www.w3.org/2000/svg">
<path d="M14.1667 16.6666H18.3334V15C18.3334 14.4804 18.1715 13.9738 17.8702 13.5505C17.5689 13.1272 17.1433 12.8083 16.6524 12.6381C16.1615 12.4679 15.6298 12.4549 15.1311 12.6008C14.6325 12.7468 14.1917 13.0445 13.8701 13.4525M14.1667 16.6666H5.83341M14.1667 16.6666V15C14.1667 14.4533 14.0617 13.9308 13.8701 13.4525M13.8701 13.4525C13.5606 12.6791 13.0265 12.0162 12.3367 11.5492C11.6469 11.0823 10.8331 10.8327 10.0001 10.8327C9.1671 10.8327 8.35322 11.0823 7.66342 11.5492C6.97362 12.0162 6.43954 12.6791 6.13008 13.4525M5.83341 16.6666H1.66675V15C1.66679 14.4804 1.82869 13.9738 2.12997 13.5505C2.43124 13.1272 2.8569 12.8083 3.34779 12.6381C3.83868 12.4679 4.3704 12.4549 4.86903 12.6008C5.36766 12.7468 5.80844 13.0445 6.13008 13.4525M5.83341 16.6666V15C5.83341 14.4533 5.93841 13.9308 6.13008 13.4525M12.5001 5.83331C12.5001 6.49635 12.2367 7.13224 11.7678 7.60108C11.299 8.06992 10.6631 8.33331 10.0001 8.33331C9.33704 8.33331 8.70115 8.06992 8.23231 7.60108C7.76347 7.13224 7.50008 6.49635 7.50008 5.83331C7.50008 5.17027 7.76347 4.53439 8.23231 4.06555C8.70115 3.59671 9.33704 3.33331 10.0001 3.33331C10.6631 3.33331 11.299 3.59671 11.7678 4.06555C12.2367 4.53439 12.5001 5.17027 12.5001 5.83331ZM17.5001 8.33331C17.5001 8.77534 17.3245 9.19926 17.0119 9.51182C16.6994 9.82438 16.2754 9.99998 15.8334 9.99998C15.3914 9.99998 14.9675 9.82438 14.6549 9.51182C14.3423 9.19926 14.1667 8.77534 14.1667 8.33331C14.1667 7.89129 14.3423 7.46736 14.6549 7.1548C14.9675 6.84224 15.3914 6.66665 15.8334 6.66665C16.2754 6.66665 16.6994 6.84224 17.0119 7.1548C17.3245 7.46736 17.5001 7.89129 17.5001 8.33331ZM5.83341 8.33331C5.83341 8.77534 5.65782 9.19926 5.34526 9.51182C5.0327 9.82438 4.60878 9.99998 4.16675 9.99998C3.72472 9.99998 3.3008 9.82438 2.98824 9.51182C2.67568 9.19926 2.50008 8.77534 2.50008 8.33331C2.50008 7.89129 2.67568 7.46736 2.98824 7.1548C3.3008 6.84224 3.72472 6.66665 4.16675 6.66665C4.60878 6.66665 5.0327 6.84224 5.34526 7.1548C5.65782 7.46736 5.83341 7.89129 5.83341 8.33331Z" stroke="black" stroke-width="2" stroke-linecap="round" stroke-linejoin="round"/>
</svg>
